<svg width="24" height="24" viewBox="0 0 24 24" fill="none" xmlns="http://www.w3.org/2000/svg">
<path d="M5.33333 0C2.388 0 0 2.388 0 5.33333V18.6667C0 21.612 2.388 24 5.33333 24H18.6667C21.612 24 24 21.612 24 18.6667V5.33333C24 2.388 21.612 0 18.6667 0H5.33333ZM17.3333 4C18.8067 4 20 5.19333 20 6.66667C20 8.14 18.8067 9.33333 17.3333 9.33333C15.86 9.33333 14.6667 8.14 14.6667 6.66667C14.6667 5.19333 15.86 4 17.3333 4ZM7.33333 10.6667C8.10933 10.668 9.28802 11.876 10.416 13.9587C10.864 14.7827 11.2653 15.6907 11.6253 16.584C11.8413 17.1173 12.008 17.5253 12.0827 17.7493C12.4467 18.8387 13.924 18.9933 14.5 18C14.5573 17.9013 14.6613 17.712 14.8333 17.4587C15.1213 17.032 15.4493 16.6 15.792 16.208C16.648 15.2267 17.4747 14.6667 18 14.6667C18.532 14.68 19.3533 15.2387 20.208 16.208C20.5547 16.6013 20.8747 17.032 21.1667 17.4587C21.2587 17.592 21.272 17.6547 21.3333 17.7493V18.6667C21.3333 20.14 20.14 21.3333 18.6667 21.3333H5.33333C3.86 21.3333 2.66667 20.14 2.66667 18.6667V17.5413C2.75067 17.304 2.86267 17.0227 3.04134 16.584C3.40534 15.6907 3.79998 14.784 4.25065 13.9587C5.38798 11.872 6.55867 10.6653 7.33333 10.6667Z" fill="#4FD08F"/>
</svg>
