<svg width="26" height="24" viewBox="0 0 26 24" fill="none" xmlns="http://www.w3.org/2000/svg">
<path fill-rule="evenodd" clip-rule="evenodd" d="M12.9911 0.0429688C6.15195 0.0429688 0.636475 4.65955 0.636475 10.2641C0.636475 13.9021 2.93091 17.0876 6.37257 18.9064L5.2077 23.4586C5.18574 23.5267 5.18237 23.6 5.19796 23.67C5.21354 23.7401 5.24746 23.8045 5.29596 23.8556C5.36665 23.9207 5.45762 23.9568 5.55188 23.957C5.63002 23.9506 5.70417 23.9181 5.76365 23.8648L10.7761 20.3285C11.516 20.4353 12.2619 20.4907 13.0089 20.4946C19.8392 20.4946 25.3634 15.878 25.3634 10.2641C25.3634 4.65033 19.8214 0.0429688 12.9911 0.0429688ZM4.9596 8.64812H3.6094C3.44207 8.6532 3.27678 8.60835 3.13287 8.51883C3.06898 8.47695 3.01405 8.42168 2.97154 8.35652C2.929 8.29139 2.89981 8.21774 2.88578 8.14023C2.8815 8.0911 2.8815 8.04172 2.88578 7.99259C2.88158 7.90064 2.89864 7.80894 2.93551 7.72536C2.97239 7.64178 3.02797 7.56875 3.09756 7.51245C3.25142 7.39586 3.43712 7.33427 3.62705 7.33696H7.69527C7.86394 7.33075 8.03035 7.37914 8.17181 7.47546C8.23721 7.51551 8.29331 7.57027 8.33604 7.63575C8.37875 7.70121 8.40706 7.77577 8.41891 7.85406C8.42322 7.90011 8.42322 7.94653 8.41891 7.99259C8.42307 8.08586 8.40605 8.17882 8.36923 8.26388C8.33241 8.34896 8.27686 8.42361 8.20711 8.48187C8.05702 8.5983 7.87311 8.65707 7.68644 8.64812H6.3804V13.5049C6.38569 13.6082 6.37039 13.7117 6.33544 13.8088C6.30051 13.9056 6.2467 13.9939 6.17741 14.068C6.11098 14.1388 6.03114 14.1942 5.94297 14.2308C5.85482 14.2674 5.76034 14.2844 5.66557 14.2805C5.49985 14.2853 5.33761 14.2299 5.20669 14.1234C5.08202 14.0194 4.99744 13.872 4.96842 13.708C4.95969 13.6406 4.95969 13.5723 4.96842 13.5049L4.9596 8.64812ZM9.0648 7.32747C8.93884 7.4133 8.8477 7.54488 8.80888 7.69682L6.93802 13.0059C6.92808 13.0346 6.91603 13.0639 6.90385 13.0936L6.90385 13.0937C6.87281 13.1693 6.84095 13.247 6.84095 13.3199C6.8258 13.4116 6.8258 13.5052 6.84095 13.5968C6.83627 13.649 6.83627 13.7017 6.84095 13.7539C6.8668 13.9071 6.94528 14.0448 7.06159 14.1417C7.18095 14.2355 7.32711 14.2843 7.47635 14.2801C7.61412 14.2983 7.75362 14.2659 7.87107 14.1883C7.98854 14.1111 8.07671 13.9933 8.12055 13.8555L8.49119 12.7198H10.8121L11.1827 13.8555C11.2277 13.9905 11.3148 14.106 11.43 14.1831C11.5453 14.2601 11.682 14.2944 11.8181 14.2801C11.9066 14.2824 11.9946 14.2654 12.0766 14.2307C12.1586 14.1957 12.2328 14.1433 12.2947 14.077C12.3585 14.0165 12.4089 13.9422 12.4424 13.8594C12.476 13.7764 12.4918 13.6869 12.4888 13.5968C12.4918 13.5384 12.4918 13.4799 12.4888 13.4215C12.4581 13.2808 12.4198 13.1421 12.3741 13.0059L10.6091 7.78912C10.5669 7.60427 10.4598 7.44277 10.3091 7.33671C10.1668 7.2521 10.0049 7.21053 9.84137 7.21667H9.50603C9.35194 7.20948 9.199 7.24789 9.0648 7.32747ZM8.853 11.6764L9.69137 8.90644L10.5209 11.6764H8.853ZM12.6905 7.99277C12.6815 7.78554 12.7513 7.58307 12.8846 7.42955C12.9524 7.35802 13.0337 7.30213 13.1234 7.26556C13.2131 7.22897 13.3092 7.21243 13.4052 7.21707C13.5706 7.21507 13.7319 7.2703 13.8642 7.3741C13.9867 7.4824 14.0682 7.63305 14.0935 7.79879C14.1023 7.8631 14.1023 7.92844 14.0935 7.99277V12.8495H16.5204C16.6885 12.8472 16.8541 12.895 16.997 12.988C17.0611 13.0294 17.1163 13.0846 17.159 13.1496C17.2016 13.215 17.2306 13.2888 17.244 13.3665V13.505C17.2482 13.597 17.2311 13.6885 17.1944 13.772C17.1574 13.8557 17.1018 13.9289 17.0323 13.9852C16.8785 14.1016 16.6927 14.1633 16.5028 14.1605H13.52C13.3301 14.1734 13.1412 14.1216 12.9816 14.0128C12.839 13.9013 12.7439 13.7355 12.7169 13.5512C12.7105 13.4498 12.7105 13.3479 12.7169 13.2465L12.6905 7.99277ZM17.597 7.42985C17.4669 7.58538 17.3976 7.78646 17.4029 7.99307L17.3499 13.4591C17.3414 13.5265 17.3414 13.5948 17.3499 13.6622C17.379 13.8262 17.4636 13.9739 17.5882 14.0778C17.7166 14.1829 17.8755 14.2384 18.0384 14.2347C18.1358 14.239 18.233 14.2223 18.324 14.1859C18.4152 14.1493 18.4981 14.0937 18.5678 14.0224C18.6979 13.8667 18.7671 13.6657 18.7619 13.4591V11.9172L19.5473 11.0585L21.1887 13.8285C21.2569 13.9582 21.3536 14.0691 21.4712 14.1516C21.5798 14.2112 21.7016 14.24 21.8242 14.2347C22.0087 14.2374 22.1887 14.1758 22.336 14.0592C22.4142 13.9897 22.4751 13.9012 22.5136 13.8016C22.5521 13.7018 22.5668 13.5939 22.5567 13.4867V13.4407C22.5079 13.2855 22.4364 13.139 22.3448 13.0067V12.9142L20.5798 10.0521L22.0447 8.37154C22.1094 8.29525 22.1656 8.21173 22.2124 8.12233C22.2584 8.03792 22.2828 7.94245 22.283 7.8453C22.2788 7.824 22.2788 7.80203 22.283 7.78071C22.2865 7.76243 22.2865 7.74355 22.283 7.72526C22.2705 7.65074 22.2437 7.57965 22.2043 7.51619C22.1647 7.45273 22.1135 7.39818 22.0535 7.3559C21.9262 7.26485 21.7754 7.2165 21.6211 7.2174C21.5158 7.21524 21.4118 7.2441 21.3211 7.30057C21.225 7.38079 21.1335 7.46704 21.0476 7.55902L18.8148 10.2552V7.99307C18.8192 7.92851 18.8192 7.86365 18.8148 7.79909C18.7865 7.63234 18.7019 7.48176 18.5766 7.3744C18.4321 7.2643 18.2558 7.20967 18.0776 7.21974C17.8991 7.22984 17.7294 7.30411 17.597 7.42985Z" fill="#392020"/>
</svg>
