<svg width="173" height="39" viewBox="0 0 173 39" fill="none" xmlns="http://www.w3.org/2000/svg">
<mask id="path-1-outside-1_136_1213" maskUnits="userSpaceOnUse" x="0" y="0.333496" width="173" height="39" fill="black">
<rect fill="white" y="0.333496" width="173" height="39"/>
<path d="M1 38.0002V1.3335H17.6667V4.66683H4.33333V21.3335H17.6667V24.6668H4.33333V38.0002H1ZM17.6667 21.3335V18.0002H21V21.3335H17.6667ZM17.6667 4.66683H21V8.00016H17.6667V4.66683ZM21 18.0002V8.00016H24.3333V18.0002H21Z"/>
<path d="M27.6797 38.0002V1.3335H31.013V18.0002H47.6797V1.3335H51.013V38.0002H47.6797V21.3335H31.013V38.0002H27.6797Z"/>
<path d="M54.3594 31.3335V8.00016H57.6927V31.3335H54.3594ZM81.026 31.3335H77.6927V8.00016H81.026V31.3335ZM57.6927 31.3335H61.026V34.6668H57.6927V31.3335ZM57.6927 8.00016V4.66683H61.026V8.00016H57.6927ZM61.026 34.6668H74.3594V38.0002H61.026V34.6668ZM61.026 4.66683V1.3335H74.3594V4.66683H61.026ZM74.3594 34.6668V31.3335H77.6927V34.6668H74.3594ZM74.3594 4.66683H77.6927V8.00016H74.3594V4.66683Z"/>
<path d="M84.3594 38.0002V1.3335H101.026V4.66683H87.6927V18.0002H101.026V21.3335H87.6927V34.6668H101.026V38.0002H84.3594ZM104.359 31.3335V34.6668H101.026V31.3335H104.359ZM104.359 21.3335V24.6668H101.026V21.3335H104.359ZM104.359 24.6668H107.693V31.3335H104.359V24.6668ZM104.359 14.6668V18.0002H101.026V14.6668H104.359ZM104.359 4.66683V8.00016H101.026V4.66683H104.359ZM104.359 8.00016H107.693V14.6668H104.359V8.00016Z"/>
<path d="M111.039 31.3335V1.3335H114.372V31.3335H111.039ZM137.706 31.3335H134.372V1.3335H137.706V31.3335ZM114.372 31.3335H117.706V34.6668H114.372V31.3335ZM117.706 34.6668H131.039V38.0002H117.706V34.6668ZM131.039 34.6668V31.3335H134.372V34.6668H131.039Z"/>
<path d="M171.039 1.3335V38.0002H167.706V11.3335H164.372V4.66683H167.706V1.3335H171.039ZM141.039 38.0002V1.3335H144.372V4.66683H147.706V11.3335H144.372V38.0002H141.039ZM147.706 21.3335V11.3335H151.039V21.3335H147.706ZM154.372 31.3335H157.706V38.0002H154.372V31.3335ZM154.372 21.3335V31.3335H151.039V21.3335H154.372ZM161.039 31.3335H157.706V21.3335H161.039V31.3335ZM161.039 21.3335V11.3335H164.372V21.3335H161.039Z"/>
</mask>
<path d="M1 38.0002V1.3335H17.6667V4.66683H4.33333V21.3335H17.6667V24.6668H4.33333V38.0002H1ZM17.6667 21.3335V18.0002H21V21.3335H17.6667ZM17.6667 4.66683H21V8.00016H17.6667V4.66683ZM21 18.0002V8.00016H24.3333V18.0002H21Z" fill="#4FD08F"/>
<path d="M27.6797 38.0002V1.3335H31.013V18.0002H47.6797V1.3335H51.013V38.0002H47.6797V21.3335H31.013V38.0002H27.6797Z" fill="#4FD08F"/>
<path d="M54.3594 31.3335V8.00016H57.6927V31.3335H54.3594ZM81.026 31.3335H77.6927V8.00016H81.026V31.3335ZM57.6927 31.3335H61.026V34.6668H57.6927V31.3335ZM57.6927 8.00016V4.66683H61.026V8.00016H57.6927ZM61.026 34.6668H74.3594V38.0002H61.026V34.6668ZM61.026 4.66683V1.3335H74.3594V4.66683H61.026ZM74.3594 34.6668V31.3335H77.6927V34.6668H74.3594ZM74.3594 4.66683H77.6927V8.00016H74.3594V4.66683Z" fill="#4FD08F"/>
<path d="M84.3594 38.0002V1.3335H101.026V4.66683H87.6927V18.0002H101.026V21.3335H87.6927V34.6668H101.026V38.0002H84.3594ZM104.359 31.3335V34.6668H101.026V31.3335H104.359ZM104.359 21.3335V24.6668H101.026V21.3335H104.359ZM104.359 24.6668H107.693V31.3335H104.359V24.6668ZM104.359 14.6668V18.0002H101.026V14.6668H104.359ZM104.359 4.66683V8.00016H101.026V4.66683H104.359ZM104.359 8.00016H107.693V14.6668H104.359V8.00016Z" fill="#4FD08F"/>
<path d="M111.039 31.3335V1.3335H114.372V31.3335H111.039ZM137.706 31.3335H134.372V1.3335H137.706V31.3335ZM114.372 31.3335H117.706V34.6668H114.372V31.3335ZM117.706 34.6668H131.039V38.0002H117.706V34.6668ZM131.039 34.6668V31.3335H134.372V34.6668H131.039Z" fill="#4FD08F"/>
<path d="M171.039 1.3335V38.0002H167.706V11.3335H164.372V4.66683H167.706V1.3335H171.039ZM141.039 38.0002V1.3335H144.372V4.66683H147.706V11.3335H144.372V38.0002H141.039ZM147.706 21.3335V11.3335H151.039V21.3335H147.706ZM154.372 31.3335H157.706V38.0002H154.372V31.3335ZM154.372 21.3335V31.3335H151.039V21.3335H154.372ZM161.039 31.3335H157.706V21.3335H161.039V31.3335ZM161.039 21.3335V11.3335H164.372V21.3335H161.039Z" fill="#4FD08F"/>
<path d="M1 38.0002H0V39.0002H1V38.0002ZM1 1.3335V0.333496H0V1.3335H1ZM17.6667 1.3335H18.6667V0.333496H17.6667V1.3335ZM4.33333 4.66683V3.66683H3.33333V4.66683H4.33333ZM4.33333 21.3335H3.33333V22.3335H4.33333V21.3335ZM17.6667 24.6668V25.6668H18.6667V24.6668H17.6667ZM4.33333 24.6668V23.6668H3.33333V24.6668H4.33333ZM4.33333 38.0002V39.0002H5.33333V38.0002H4.33333ZM17.6667 18.0002V17.0002H16.6667V18.0002H17.6667ZM21 21.3335V22.3335H22V21.3335H21ZM21 4.66683H22V3.66683H21V4.66683ZM17.6667 8.00016H16.6667V9.00016H17.6667V8.00016ZM24.3333 8.00016H25.3333V7.00016H24.3333V8.00016ZM24.3333 18.0002V19.0002H25.3333V18.0002H24.3333ZM27.6797 38.0002H26.6797V39.0002H27.6797V38.0002ZM27.6797 1.3335V0.333496H26.6797V1.3335H27.6797ZM31.013 1.3335H32.013V0.333496H31.013V1.3335ZM31.013 18.0002H30.013V19.0002H31.013V18.0002ZM47.6797 18.0002V19.0002H48.6797V18.0002H47.6797ZM47.6797 1.3335V0.333496H46.6797V1.3335H47.6797ZM51.013 1.3335H52.013V0.333496H51.013V1.3335ZM51.013 38.0002V39.0002H52.013V38.0002H51.013ZM47.6797 38.0002H46.6797V39.0002H47.6797V38.0002ZM47.6797 21.3335H48.6797V20.3335H47.6797V21.3335ZM31.013 21.3335V20.3335H30.013V21.3335H31.013ZM31.013 38.0002V39.0002H32.013V38.0002H31.013ZM54.3594 31.3335H53.3594V32.3335H54.3594V31.3335ZM54.3594 8.00016V7.00016H53.3594V8.00016H54.3594ZM81.026 31.3335V32.3335H82.026V31.3335H81.026ZM81.026 8.00016H82.026V7.00016H81.026V8.00016ZM61.026 31.3335H62.026V30.3335H61.026V31.3335ZM57.6927 34.6668H56.6927V35.6668H57.6927V34.6668ZM57.6927 4.66683V3.66683H56.6927V4.66683H57.6927ZM61.026 8.00016V9.00016H62.026V8.00016H61.026ZM74.3594 38.0002V39.0002H75.3594V38.0002H74.3594ZM61.026 38.0002H60.026V39.0002H61.026V38.0002ZM61.026 1.3335V0.333496H60.026V1.3335H61.026ZM74.3594 1.3335H75.3594V0.333496H74.3594V1.3335ZM74.3594 31.3335V30.3335H73.3594V31.3335H74.3594ZM77.6927 34.6668V35.6668H78.6927V34.6668H77.6927ZM77.6927 4.66683H78.6927V3.66683H77.6927V4.66683ZM74.3594 8.00016H73.3594V9.00016H74.3594V8.00016ZM84.3594 38.0002H83.3594V39.0002H84.3594V38.0002ZM84.3594 1.3335V0.333496H83.3594V1.3335H84.3594ZM101.026 1.3335H102.026V0.333496H101.026V1.3335ZM87.6927 4.66683V3.66683H86.6927V4.66683H87.6927ZM87.6927 18.0002H86.6927V19.0002H87.6927V18.0002ZM87.6927 21.3335V20.3335H86.6927V21.3335H87.6927ZM87.6927 34.6668H86.6927V35.6668H87.6927V34.6668ZM101.026 38.0002V39.0002H102.026V38.0002H101.026ZM104.359 34.6668V35.6668H105.359V34.6668H104.359ZM101.026 31.3335V30.3335H100.026V31.3335H101.026ZM104.359 21.3335H105.359V20.3335H104.359V21.3335ZM101.026 24.6668H100.026V25.6668H101.026V24.6668ZM107.693 24.6668H108.693V23.6668H107.693V24.6668ZM107.693 31.3335V32.3335H108.693V31.3335H107.693ZM104.359 18.0002V19.0002H105.359V18.0002H104.359ZM101.026 14.6668V13.6668H100.026V14.6668H101.026ZM104.359 4.66683H105.359V3.66683H104.359V4.66683ZM101.026 8.00016H100.026V9.00016H101.026V8.00016ZM107.693 8.00016H108.693V7.00016H107.693V8.00016ZM107.693 14.6668V15.6668H108.693V14.6668H107.693ZM111.039 31.3335H110.039V32.3335H111.039V31.3335ZM111.039 1.3335V0.333496H110.039V1.3335H111.039ZM114.372 1.3335H115.372V0.333496H114.372V1.3335ZM137.706 31.3335V32.3335H138.706V31.3335H137.706ZM134.372 1.3335V0.333496H133.372V1.3335H134.372ZM137.706 1.3335H138.706V0.333496H137.706V1.3335ZM117.706 31.3335H118.706V30.3335H117.706V31.3335ZM114.372 34.6668H113.372V35.6668H114.372V34.6668ZM131.039 38.0002V39.0002H132.039V38.0002H131.039ZM117.706 38.0002H116.706V39.0002H117.706V38.0002ZM131.039 31.3335V30.3335H130.039V31.3335H131.039ZM134.372 34.6668V35.6668H135.372V34.6668H134.372ZM171.039 1.3335H172.039V0.333496H171.039V1.3335ZM171.039 38.0002V39.0002H172.039V38.0002H171.039ZM167.706 38.0002H166.706V39.0002H167.706V38.0002ZM167.706 11.3335H168.706V10.3335H167.706V11.3335ZM164.372 4.66683V3.66683H163.372V4.66683H164.372ZM167.706 4.66683V5.66683H168.706V4.66683H167.706ZM167.706 1.3335V0.333496H166.706V1.3335H167.706ZM141.039 38.0002H140.039V39.0002H141.039V38.0002ZM141.039 1.3335V0.333496H140.039V1.3335H141.039ZM144.372 1.3335H145.372V0.333496H144.372V1.3335ZM144.372 4.66683H143.372V5.66683H144.372V4.66683ZM147.706 4.66683H148.706V3.66683H147.706V4.66683ZM144.372 11.3335V10.3335H143.372V11.3335H144.372ZM144.372 38.0002V39.0002H145.372V38.0002H144.372ZM147.706 21.3335H146.706V22.3335H147.706V21.3335ZM151.039 11.3335H152.039V10.3335H151.039V11.3335ZM157.706 38.0002V39.0002H158.706V38.0002H157.706ZM154.372 38.0002H153.372V39.0002H154.372V38.0002ZM154.372 21.3335H155.372V20.3335H154.372V21.3335ZM151.039 31.3335H150.039V32.3335H151.039V31.3335ZM161.039 31.3335V32.3335H162.039V31.3335H161.039ZM157.706 21.3335V20.3335H156.706V21.3335H157.706ZM161.039 11.3335V10.3335H160.039V11.3335H161.039ZM164.372 21.3335V22.3335H165.372V21.3335H164.372ZM1 38.0002H2V1.3335H1H0V38.0002H1ZM1 1.3335V2.3335H17.6667V1.3335V0.333496H1V1.3335ZM17.6667 1.3335H16.6667V4.66683H17.6667H18.6667V1.3335H17.6667ZM17.6667 4.66683V3.66683H4.33333V4.66683V5.66683H17.6667V4.66683ZM4.33333 4.66683H3.33333V21.3335H4.33333H5.33333V4.66683H4.33333ZM4.33333 21.3335V22.3335H17.6667V21.3335V20.3335H4.33333V21.3335ZM17.6667 21.3335H16.6667V24.6668H17.6667H18.6667V21.3335H17.6667ZM17.6667 24.6668V23.6668H4.33333V24.6668V25.6668H17.6667V24.6668ZM4.33333 24.6668H3.33333V38.0002H4.33333H5.33333V24.6668H4.33333ZM4.33333 38.0002V37.0002H1V38.0002V39.0002H4.33333V38.0002ZM17.6667 21.3335H18.6667V18.0002H17.6667H16.6667V21.3335H17.6667ZM17.6667 18.0002V19.0002H21V18.0002V17.0002H17.6667V18.0002ZM21 18.0002H20V21.3335H21H22V18.0002H21ZM21 21.3335V20.3335H17.6667V21.3335V22.3335H21V21.3335ZM17.6667 4.66683V5.66683H21V4.66683V3.66683H17.6667V4.66683ZM21 4.66683H20V8.00016H21H22V4.66683H21ZM21 8.00016V7.00016H17.6667V8.00016V9.00016H21V8.00016ZM17.6667 8.00016H18.6667V4.66683H17.6667H16.6667V8.00016H17.6667ZM21 18.0002H22V8.00016H21H20V18.0002H21ZM21 8.00016V9.00016H24.3333V8.00016V7.00016H21V8.00016ZM24.3333 8.00016H23.3333V18.0002H24.3333H25.3333V8.00016H24.3333ZM24.3333 18.0002V17.0002H21V18.0002V19.0002H24.3333V18.0002ZM27.6797 38.0002H28.6797V1.3335H27.6797H26.6797V38.0002H27.6797ZM27.6797 1.3335V2.3335H31.013V1.3335V0.333496H27.6797V1.3335ZM31.013 1.3335H30.013V18.0002H31.013H32.013V1.3335H31.013ZM31.013 18.0002V19.0002H47.6797V18.0002V17.0002H31.013V18.0002ZM47.6797 18.0002H48.6797V1.3335H47.6797H46.6797V18.0002H47.6797ZM47.6797 1.3335V2.3335H51.013V1.3335V0.333496H47.6797V1.3335ZM51.013 1.3335H50.013V38.0002H51.013H52.013V1.3335H51.013ZM51.013 38.0002V37.0002H47.6797V38.0002V39.0002H51.013V38.0002ZM47.6797 38.0002H48.6797V21.3335H47.6797H46.6797V38.0002H47.6797ZM47.6797 21.3335V20.3335H31.013V21.3335V22.3335H47.6797V21.3335ZM31.013 21.3335H30.013V38.0002H31.013H32.013V21.3335H31.013ZM31.013 38.0002V37.0002H27.6797V38.0002V39.0002H31.013V38.0002ZM54.3594 31.3335H55.3594V8.00016H54.3594H53.3594V31.3335H54.3594ZM54.3594 8.00016V9.00016H57.6927V8.00016V7.00016H54.3594V8.00016ZM57.6927 8.00016H56.6927V31.3335H57.6927H58.6927V8.00016H57.6927ZM57.6927 31.3335V30.3335H54.3594V31.3335V32.3335H57.6927V31.3335ZM81.026 31.3335V30.3335H77.6927V31.3335V32.3335H81.026V31.3335ZM77.6927 31.3335H78.6927V8.00016H77.6927H76.6927V31.3335H77.6927ZM77.6927 8.00016V9.00016H81.026V8.00016V7.00016H77.6927V8.00016ZM81.026 8.00016H80.026V31.3335H81.026H82.026V8.00016H81.026ZM57.6927 31.3335V32.3335H61.026V31.3335V30.3335H57.6927V31.3335ZM61.026 31.3335H60.026V34.6668H61.026H62.026V31.3335H61.026ZM61.026 34.6668V33.6668H57.6927V34.6668V35.6668H61.026V34.6668ZM57.6927 34.6668H58.6927V31.3335H57.6927H56.6927V34.6668H57.6927ZM57.6927 8.00016H58.6927V4.66683H57.6927H56.6927V8.00016H57.6927ZM57.6927 4.66683V5.66683H61.026V4.66683V3.66683H57.6927V4.66683ZM61.026 4.66683H60.026V8.00016H61.026H62.026V4.66683H61.026ZM61.026 8.00016V7.00016H57.6927V8.00016V9.00016H61.026V8.00016ZM61.026 34.6668V35.6668H74.3594V34.6668V33.6668H61.026V34.6668ZM74.3594 34.6668H73.3594V38.0002H74.3594H75.3594V34.6668H74.3594ZM74.3594 38.0002V37.0002H61.026V38.0002V39.0002H74.3594V38.0002ZM61.026 38.0002H62.026V34.6668H61.026H60.026V38.0002H61.026ZM61.026 4.66683H62.026V1.3335H61.026H60.026V4.66683H61.026ZM61.026 1.3335V2.3335H74.3594V1.3335V0.333496H61.026V1.3335ZM74.3594 1.3335H73.3594V4.66683H74.3594H75.3594V1.3335H74.3594ZM74.3594 4.66683V3.66683H61.026V4.66683V5.66683H74.3594V4.66683ZM74.3594 34.6668H75.3594V31.3335H74.3594H73.3594V34.6668H74.3594ZM74.3594 31.3335V32.3335H77.6927V31.3335V30.3335H74.3594V31.3335ZM77.6927 31.3335H76.6927V34.6668H77.6927H78.6927V31.3335H77.6927ZM77.6927 34.6668V33.6668H74.3594V34.6668V35.6668H77.6927V34.6668ZM74.3594 4.66683V5.66683H77.6927V4.66683V3.66683H74.3594V4.66683ZM77.6927 4.66683H76.6927V8.00016H77.6927H78.6927V4.66683H77.6927ZM77.6927 8.00016V7.00016H74.3594V8.00016V9.00016H77.6927V8.00016ZM74.3594 8.00016H75.3594V4.66683H74.3594H73.3594V8.00016H74.3594ZM84.3594 38.0002H85.3594V1.3335H84.3594H83.3594V38.0002H84.3594ZM84.3594 1.3335V2.3335H101.026V1.3335V0.333496H84.3594V1.3335ZM101.026 1.3335H100.026V4.66683H101.026H102.026V1.3335H101.026ZM101.026 4.66683V3.66683H87.6927V4.66683V5.66683H101.026V4.66683ZM87.6927 4.66683H86.6927V18.0002H87.6927H88.6927V4.66683H87.6927ZM87.6927 18.0002V19.0002H101.026V18.0002V17.0002H87.6927V18.0002ZM101.026 18.0002H100.026V21.3335H101.026H102.026V18.0002H101.026ZM101.026 21.3335V20.3335H87.6927V21.3335V22.3335H101.026V21.3335ZM87.6927 21.3335H86.6927V34.6668H87.6927H88.6927V21.3335H87.6927ZM87.6927 34.6668V35.6668H101.026V34.6668V33.6668H87.6927V34.6668ZM101.026 34.6668H100.026V38.0002H101.026H102.026V34.6668H101.026ZM101.026 38.0002V37.0002H84.3594V38.0002V39.0002H101.026V38.0002ZM104.359 31.3335H103.359V34.6668H104.359H105.359V31.3335H104.359ZM104.359 34.6668V33.6668H101.026V34.6668V35.6668H104.359V34.6668ZM101.026 34.6668H102.026V31.3335H101.026H100.026V34.6668H101.026ZM101.026 31.3335V32.3335H104.359V31.3335V30.3335H101.026V31.3335ZM104.359 21.3335H103.359V24.6668H104.359H105.359V21.3335H104.359ZM104.359 24.6668V23.6668H101.026V24.6668V25.6668H104.359V24.6668ZM101.026 24.6668H102.026V21.3335H101.026H100.026V24.6668H101.026ZM101.026 21.3335V22.3335H104.359V21.3335V20.3335H101.026V21.3335ZM104.359 24.6668V25.6668H107.693V24.6668V23.6668H104.359V24.6668ZM107.693 24.6668H106.693V31.3335H107.693H108.693V24.6668H107.693ZM107.693 31.3335V30.3335H104.359V31.3335V32.3335H107.693V31.3335ZM104.359 31.3335H105.359V24.6668H104.359H103.359V31.3335H104.359ZM104.359 14.6668H103.359V18.0002H104.359H105.359V14.6668H104.359ZM104.359 18.0002V17.0002H101.026V18.0002V19.0002H104.359V18.0002ZM101.026 18.0002H102.026V14.6668H101.026H100.026V18.0002H101.026ZM101.026 14.6668V15.6668H104.359V14.6668V13.6668H101.026V14.6668ZM104.359 4.66683H103.359V8.00016H104.359H105.359V4.66683H104.359ZM104.359 8.00016V7.00016H101.026V8.00016V9.00016H104.359V8.00016ZM101.026 8.00016H102.026V4.66683H101.026H100.026V8.00016H101.026ZM101.026 4.66683V5.66683H104.359V4.66683V3.66683H101.026V4.66683ZM104.359 8.00016V9.00016H107.693V8.00016V7.00016H104.359V8.00016ZM107.693 8.00016H106.693V14.6668H107.693H108.693V8.00016H107.693ZM107.693 14.6668V13.6668H104.359V14.6668V15.6668H107.693V14.6668ZM104.359 14.6668H105.359V8.00016H104.359H103.359V14.6668H104.359ZM111.039 31.3335H112.039V1.3335H111.039H110.039V31.3335H111.039ZM111.039 1.3335V2.3335H114.372V1.3335V0.333496H111.039V1.3335ZM114.372 1.3335H113.372V31.3335H114.372H115.372V1.3335H114.372ZM114.372 31.3335V30.3335H111.039V31.3335V32.3335H114.372V31.3335ZM137.706 31.3335V30.3335H134.372V31.3335V32.3335H137.706V31.3335ZM134.372 31.3335H135.372V1.3335H134.372H133.372V31.3335H134.372ZM134.372 1.3335V2.3335H137.706V1.3335V0.333496H134.372V1.3335ZM137.706 1.3335H136.706V31.3335H137.706H138.706V1.3335H137.706ZM114.372 31.3335V32.3335H117.706V31.3335V30.3335H114.372V31.3335ZM117.706 31.3335H116.706V34.6668H117.706H118.706V31.3335H117.706ZM117.706 34.6668V33.6668H114.372V34.6668V35.6668H117.706V34.6668ZM114.372 34.6668H115.372V31.3335H114.372H113.372V34.6668H114.372ZM117.706 34.6668V35.6668H131.039V34.6668V33.6668H117.706V34.6668ZM131.039 34.6668H130.039V38.0002H131.039H132.039V34.6668H131.039ZM131.039 38.0002V37.0002H117.706V38.0002V39.0002H131.039V38.0002ZM117.706 38.0002H118.706V34.6668H117.706H116.706V38.0002H117.706ZM131.039 34.6668H132.039V31.3335H131.039H130.039V34.6668H131.039ZM131.039 31.3335V32.3335H134.372V31.3335V30.3335H131.039V31.3335ZM134.372 31.3335H133.372V34.6668H134.372H135.372V31.3335H134.372ZM134.372 34.6668V33.6668H131.039V34.6668V35.6668H134.372V34.6668ZM171.039 1.3335H170.039V38.0002H171.039H172.039V1.3335H171.039ZM171.039 38.0002V37.0002H167.706V38.0002V39.0002H171.039V38.0002ZM167.706 38.0002H168.706V11.3335H167.706H166.706V38.0002H167.706ZM167.706 11.3335V10.3335H164.372V11.3335V12.3335H167.706V11.3335ZM164.372 11.3335H165.372V4.66683H164.372H163.372V11.3335H164.372ZM164.372 4.66683V5.66683H167.706V4.66683V3.66683H164.372V4.66683ZM167.706 4.66683H168.706V1.3335H167.706H166.706V4.66683H167.706ZM167.706 1.3335V2.3335H171.039V1.3335V0.333496H167.706V1.3335ZM141.039 38.0002H142.039V1.3335H141.039H140.039V38.0002H141.039ZM141.039 1.3335V2.3335H144.372V1.3335V0.333496H141.039V1.3335ZM144.372 1.3335H143.372V4.66683H144.372H145.372V1.3335H144.372ZM144.372 4.66683V5.66683H147.706V4.66683V3.66683H144.372V4.66683ZM147.706 4.66683H146.706V11.3335H147.706H148.706V4.66683H147.706ZM147.706 11.3335V10.3335H144.372V11.3335V12.3335H147.706V11.3335ZM144.372 11.3335H143.372V38.0002H144.372H145.372V11.3335H144.372ZM144.372 38.0002V37.0002H141.039V38.0002V39.0002H144.372V38.0002ZM147.706 21.3335H148.706V11.3335H147.706H146.706V21.3335H147.706ZM147.706 11.3335V12.3335H151.039V11.3335V10.3335H147.706V11.3335ZM151.039 11.3335H150.039V21.3335H151.039H152.039V11.3335H151.039ZM151.039 21.3335V20.3335H147.706V21.3335V22.3335H151.039V21.3335ZM154.372 31.3335V32.3335H157.706V31.3335V30.3335H154.372V31.3335ZM157.706 31.3335H156.706V38.0002H157.706H158.706V31.3335H157.706ZM157.706 38.0002V37.0002H154.372V38.0002V39.0002H157.706V38.0002ZM154.372 38.0002H155.372V31.3335H154.372H153.372V38.0002H154.372ZM154.372 21.3335H153.372V31.3335H154.372H155.372V21.3335H154.372ZM154.372 31.3335V30.3335H151.039V31.3335V32.3335H154.372V31.3335ZM151.039 31.3335H152.039V21.3335H151.039H150.039V31.3335H151.039ZM151.039 21.3335V22.3335H154.372V21.3335V20.3335H151.039V21.3335ZM161.039 31.3335V30.3335H157.706V31.3335V32.3335H161.039V31.3335ZM157.706 31.3335H158.706V21.3335H157.706H156.706V31.3335H157.706ZM157.706 21.3335V22.3335H161.039V21.3335V20.3335H157.706V21.3335ZM161.039 21.3335H160.039V31.3335H161.039H162.039V21.3335H161.039ZM161.039 21.3335H162.039V11.3335H161.039H160.039V21.3335H161.039ZM161.039 11.3335V12.3335H164.372V11.3335V10.3335H161.039V11.3335ZM164.372 11.3335H163.372V21.3335H164.372H165.372V11.3335H164.372ZM164.372 21.3335V20.3335H161.039V21.3335V22.3335H164.372V21.3335Z" fill="#4FD08F" mask="url(#path-1-outside-1_136_1213)"/>
</svg>
