<svg width="3" height="10" viewBox="0 0 3 10" fill="none" xmlns="http://www.w3.org/2000/svg">
<path d="M1.80952 2.38095C1.15204 2.38095 0.619048 1.84796 0.619048 1.19048C0.619048 0.532994 1.15204 0 1.80952 0C2.46701 0 3 0.532994 3 1.19048C3 1.84796 2.46701 2.38095 1.80952 2.38095Z" fill="#4FD08F"/>
<path d="M1.80952 6.19052C1.15204 6.19052 0.619048 5.65753 0.619048 5.00005C0.619048 4.34256 1.15204 3.80957 1.80952 3.80957C2.46701 3.80957 3 4.34256 3 5.00005C3 5.65753 2.46701 6.19052 1.80952 6.19052Z" fill="#4FD08F"/>
<path d="M1.80952 10.0001C1.15204 10.0001 0.619048 9.4671 0.619048 8.80962C0.619048 8.15214 1.15204 7.61914 1.80952 7.61914C2.46701 7.61914 3 8.15214 3 8.80962C3 9.4671 2.46701 10.0001 1.80952 10.0001Z" fill="#4FD08F"/>
</svg>
