<svg width="69" height="16" viewBox="0 0 69 16" fill="none" xmlns="http://www.w3.org/2000/svg">
<path d="M0.5 15.5V0.833333H7.16667V2.16667H1.83333V8.83333H7.16667V10.1667H1.83333V15.5H0.5ZM7.16667 8.83333V7.5H8.5V8.83333H7.16667ZM7.16667 2.16667H8.5V3.5H7.16667V2.16667ZM8.5 7.5V3.5H9.83333V7.5H8.5ZM11.1719 15.5V0.833333H12.5052V7.5H19.1719V0.833333H20.5052V15.5H19.1719V8.83333H12.5052V15.5H11.1719ZM21.8438 12.8333V3.5H23.1771V12.8333H21.8438ZM32.5104 12.8333H31.1771V3.5H32.5104V12.8333ZM23.1771 12.8333H24.5104V14.1667H23.1771V12.8333ZM23.1771 3.5V2.16667H24.5104V3.5H23.1771ZM24.5104 14.1667H29.8438V15.5H24.5104V14.1667ZM24.5104 2.16667V0.833333H29.8438V2.16667H24.5104ZM29.8438 14.1667V12.8333H31.1771V14.1667H29.8438ZM29.8438 2.16667H31.1771V3.5H29.8438V2.16667ZM33.8438 15.5V0.833333H40.5104V2.16667H35.1771V7.5H40.5104V8.83333H35.1771V14.1667H40.5104V15.5H33.8438ZM41.8438 12.8333V14.1667H40.5104V12.8333H41.8438ZM41.8438 8.83333V10.1667H40.5104V8.83333H41.8438ZM41.8438 10.1667H43.1771V12.8333H41.8438V10.1667ZM41.8438 6.16667V7.5H40.5104V6.16667H41.8438ZM41.8438 2.16667V3.5H40.5104V2.16667H41.8438ZM41.8438 3.5H43.1771V6.16667H41.8438V3.5ZM44.5156 12.8333V0.833333H45.849V12.8333H44.5156ZM55.1823 12.8333H53.849V0.833333H55.1823V12.8333ZM45.849 12.8333H47.1823V14.1667H45.849V12.8333ZM47.1823 14.1667H52.5156V15.5H47.1823V14.1667ZM52.5156 14.1667V12.8333H53.849V14.1667H52.5156ZM68.5156 0.833333V15.5H67.1823V4.83333H65.849V2.16667H67.1823V0.833333H68.5156ZM56.5156 15.5V0.833333H57.849V2.16667H59.1823V4.83333H57.849V15.5H56.5156ZM59.1823 8.83333V4.83333H60.5156V8.83333H59.1823ZM61.849 12.8333H63.1823V15.5H61.849V12.8333ZM61.849 8.83333V12.8333H60.5156V8.83333H61.849ZM64.5156 12.8333H63.1823V8.83333H64.5156V12.8333ZM64.5156 8.83333V4.83333H65.849V8.83333H64.5156Z" fill="#4FD08F"/>
</svg>
